<svg id="Layer_1" enable-background="new 0 0 512 512" height="512" viewBox="0 0 512 512" width="512" xmlns="http://www.w3.org/2000/svg"><g clip-rule="evenodd" fill-rule="evenodd"><g><g><path d="m367.574 397.829-216.343-261.085-128.555 34.446c-1.583.424-2.761 1.477-3.36 3.003-.6 1.527-.448 3.1.425 4.488 55.142 87.678 22.555 183.79 67.741 258.964 10.963 18.239 31.89 26.689 52.446 21.181 151.764-40.665 227.646-60.997 227.646-60.997z" fill="#b1b1b5"/><path d="m52.161 143.667c4.047 83.182 84.133 184.689 80.98 258.865-.659 15.511-10.376 28.767-25.689 32.87-7.579 2.031-15.241 1.484-22.004-1.246.66 1.168 1.337 2.331 2.034 3.489 10.963 18.24 31.89 26.689 52.446 21.181 151.764-40.665 227.646-60.998 227.646-60.998l-218.001-284.344c-31.237 8.37-62.474 16.74-93.711 25.11-2.299.617-3.816 2.695-3.701 5.073z" fill="#d1d1d6"/><path d="m139.928 458.826c20.556-5.508 34.453-23.288 34.829-44.566 1.561-88.586-101.693-184.647-96.658-290.603.105-2.211 1.566-4.02 3.705-4.592 81.896-21.944 163.792-43.888 245.687-65.831 1.574-.422 3.111-.106 4.391.904 1.281 1.011 1.943 2.434 1.897 4.065-2.923 104.737 98.319 199.793 96.774 287.518-.376 21.278-14.273 39.058-34.829 44.566-76.192 20.415-179.605 48.124-255.796 68.539z" fill="#eceff1"/></g><g><path d="m167.302 142.027 112.936-30.261c4.565-1.223 9.286 1.504 10.509 6.067l25.819 96.359c1.223 4.564-1.503 9.286-6.067 10.509l-112.936 30.261c-4.564 1.223-9.286-1.502-10.509-6.067l-25.819-96.358c-1.224-4.566 1.502-9.287 6.067-10.51z" fill="#8ac9fe"/><path d="m267.076 115.293 13.162-3.527c4.565-1.223 9.286 1.504 10.509 6.067l25.819 96.359c1.223 4.564-1.503 9.286-6.067 10.509l-112.936 30.261-.006.001 99.774-26.734c4.564-1.223 7.29-5.945 6.067-10.509l-25.819-96.359c-1.222-4.561-5.94-7.287-10.503-6.068z" fill="#60b7ff"/><path d="m316.566 214.192-7.12-26.572-34.902-27.517c-1.149-.906-2.483-1.247-3.926-1.004s-2.592 1.003-3.381 2.235l-26.621 41.597-26.283-17.36c-2.186-1.444-5.097-.964-6.704 1.104l-27.695 35.647 7.12 26.572c1.223 4.565 5.945 7.29 10.509 6.067l112.936-30.261c4.564-1.222 7.29-5.944 6.067-10.508z" fill="#685e68"/><path d="m316.566 214.192-7.12-26.572-17.893-14.107 11.845 44.208c1.223 4.564-1.503 9.286-6.067 10.509l-99.774 26.734.006-.001 112.936-30.261c4.564-1.224 7.29-5.946 6.067-10.51z" fill="#544854"/></g><g><path d="m406.086 343.919-30.5-52.828-19.913 11.496 23.354 40.45c4.69 8.124 15.142 10.924 23.266 6.234l2.791-1.611c1.306-.754 1.756-2.434 1.002-3.741z" fill="#8192a5"/><path d="m406.086 343.92-30.5-52.828-19.913 11.496 17.122-9.885 30.5 52.828c.754 1.306.304 2.987-1.002 3.741l2.791-1.612c1.306-.754 1.756-2.434 1.002-3.74z" fill="#65788e"/><path d="m458.643 216.108c-5.057-8.76-16.258-11.761-25.018-6.703-.26.15-2.395 1.392-2.645 1.553l18.292 31.682c.264-.136 2.408-1.364 2.667-1.514 8.76-5.058 11.762-16.258 6.704-25.018z" fill="#8192a5"/><path d="m458.643 216.108c-5.058-8.76-16.258-11.761-25.018-6.703-.259.15-2.395 1.392-2.645 1.553l2.109 3.653c.25-.161 2.386-1.403 2.645-1.553 8.142-4.701 18.391-2.438 23.858 4.938-.277-.64-.592-1.27-.949-1.888z" fill="#65788e"/><path d="m379.176 297.309-28.204 16.284c-14.763 8.523-33.815 3.418-42.338-11.345-8.523-14.762-3.418-33.814 11.345-42.337l28.205-16.283c21.116-18.767 35.336-46.628 48.363-68.609 1.752-2.957 4.713-4.633 8.15-4.613s6.379 1.729 8.097 4.705l57.416 99.448c1.762 3.051 1.726 6.563-.098 9.577s-4.918 4.676-8.438 4.531c-27.013-1.11-55.366-1.476-82.498 8.642z" fill="#ffe177"/><path d="m311.335 306.189c-.987-1.225-1.891-2.539-2.701-3.941-8.523-14.762-3.418-33.814 11.345-42.337l28.205-16.283c21.116-18.767 35.336-46.628 48.363-68.609 1.752-2.956 4.713-4.633 8.15-4.613s6.378 1.729 8.097 4.705l57.416 99.447.009.016-52.662-91.213c-1.718-2.977-4.66-4.686-8.097-4.706-3.437-.019-6.398 1.657-8.15 4.613-13.027 21.982-27.246 49.842-48.363 68.609l-28.205 16.284c-13.362 7.713-18.811 24.051-13.407 38.028z" fill="#ffd064"/><path d="m432.862 209.871-20.069-34.76c-1.719-2.976-4.66-4.686-8.097-4.705-3.437-.02-6.397 1.656-8.15 4.613-2.139 3.609-4.31 7.377-6.539 11.237l58.879 101.981c4.288.1 8.553.255 12.786.43 3.52.145 6.614-1.517 8.438-4.531 1.824-3.015 1.859-6.526.098-9.577l-19.055-33.004z" fill="#fe646f"/><path d="m417.552 183.355-4.76-8.244c-1.718-2.976-4.66-4.686-8.097-4.705-3.437-.02-6.397 1.657-8.15 4.613-2.139 3.609-4.31 7.377-6.539 11.237l4.763 8.25c2.228-3.86 4.4-7.628 6.539-11.238 1.752-2.957 4.713-4.632 8.15-4.613 3.435.02 6.375 1.727 8.094 4.7z" fill="#fd4755"/><path d="m375.586 291.091-27.402-47.464-28.205 16.284c-14.763 8.523-19.868 27.575-11.345 42.337 8.523 14.763 27.576 19.868 42.338 11.345l8.291-4.787 19.913-11.497z" fill="#fe646f"/><path d="m352.946 251.877-4.763-8.25-28.205 16.284c-14.763 8.523-19.868 27.575-11.345 42.337.81 1.402 1.714 2.716 2.701 3.941-5.404-13.977.046-30.315 13.406-38.028z" fill="#fd4755"/></g></g><path d="m498.067 232.795-12.478-3.347c-4.274-1.139-8.661 1.388-9.805 5.658-1.139 4.269 1.393 8.656 5.663 9.795l12.478 3.347c.701.188 1.393.278 2.081.278 3.53 0 6.764-2.358 7.719-5.935 1.144-4.266-1.388-8.653-5.658-9.796zm-17.853-21.115c1.365 0 2.735-.348 3.991-1.073l11.203-6.463c3.817-2.207 5.13-7.103 2.918-10.929-2.208-3.822-7.098-5.135-10.92-2.928l-11.197 6.462c-3.822 2.208-5.131 7.103-2.932 10.929 1.492 2.566 4.179 4.002 6.937 4.002zm-28.486-21.12c.687.188 1.388.273 2.08.273 3.53 0 6.759-2.354 7.719-5.926l3.342-12.487c1.148-4.264-1.393-8.651-5.653-9.795-4.269-1.144-8.661 1.389-9.8 5.653l-3.351 12.483c-1.138 4.268 1.389 8.655 5.663 9.799zm11.537 88.028c.301.527.301.918-.019 1.436-.311.522-.659.711-1.262.682-2.786-.118-5.596-.221-8.416-.311l-54.341-94.109c1.417-2.457 2.81-4.834 4.189-7.159.301-.513.612-.692 1.2-.692h.019c.602 0 .908.183 1.21.706zm-49.178 18.851c-7.781.88-15.471 2.278-23.068 4.438l23.346 40.442c2.212 3.831.904 8.722-2.928 10.929l-5.159 2.979c-3.93 2.269-8.232 3.351-12.473 3.351-8.661 0-17.091-4.49-21.727-12.511l-15.763-27.3-1.36.781c-5.978 3.45-12.629 5.22-19.369 5.22-3.398 0-6.83-.452-10.209-1.36-.828-.221-1.629-.47-2.429-.739l-117.131 31.381c-.692.188-1.389.268-2.071.268-3.53 0-6.759-2.349-7.719-5.931-1.149-4.26 1.388-8.651 5.653-9.8l103.848-27.818c-1.421-1.704-2.711-3.53-3.841-5.493-4.02-6.961-5.639-14.662-5.121-22.141l-102.389 27.441c-.701.179-1.388.268-2.08.268-3.53 0-6.759-2.358-7.719-5.926-1.139-4.274 1.388-8.66 5.658-9.8l112.452-30.133c3.271-5.197 7.799-9.696 13.471-12.977l27.488-15.867c10.322-9.329 19.039-21.19 26.801-33.405-23.911-46.64-44.791-92.754-44.551-141.715l-239.707 64.234c-1.751 53.131 24.838 104.38 50.59 153.99 24.127 46.513 46.928 90.443 46.156 134.184-.169 9.668-2.768 18.762-7.286 26.632l218.187-58.474c17.241-4.617 28.58-19.129 28.9-36.977.249-14.46-2.519-30.271-8.45-48.171zm-247.351 116.707c-.311 17.82-11.621 32.322-28.83 36.963l-.071.019c-12.44 3.342-24.796.673-34.172-6.82 1.953-.249 3.902-.631 5.846-1.149 18.366-4.919 30.778-20.72 31.607-40.258 1.69-39.825-18.489-84.964-39.858-132.748-18.893-42.249-38.398-85.863-40.982-124.431l10.03-2.688c3.38 50.721 28.072 98.336 52.072 144.581 23.168 44.664 45.06 86.852 44.358 126.531zm-75.781 13.48c-17.557-32.67-21.181-69.629-24.989-108.625-4.552-46.518-9.24-94.519-37.34-141.098l19.43-5.201c7.263 33.894 23.12 69.379 38.592 103.98 20.578 46.019 40.018 89.487 38.479 125.537-.518 12.407-8.28 22.409-19.759 25.488-4.862 1.303-9.791 1.252-14.413-.081zm344.021-147.419-45.031-77.993c-8.887 14.94-18.988 30.303-31.696 42.908l24.546 42.517c17.209-5.422 34.832-7.173 52.181-7.432zm-64.799 31.564 6.053-3.502 20.169 34.93c-3.93 1.191-8.322-.419-10.463-4.128zm-23.219-5.074c-5.29 3.05-11.48 3.85-17.439 2.26-5.964-1.596-10.92-5.389-13.97-10.675-3.93-6.806-3.972-14.808-.819-21.416.146-.259.278-.527.395-.805 1.963-3.718 4.942-6.943 8.83-9.193l21.285-12.285 22.988 39.83zm98.237-91.417 7.451 12.921c.772-2.612.522-5.521-.946-8.063-1.464-2.542-3.864-4.213-6.505-4.858zm31.932 55.306c3.219 5.582 3.149 12.205-.189 17.721-3.332 5.512-9.16 8.642-15.613 8.383-10.379-.424-20.649-.72-30.806-.4 5.648 18.079 8.275 34.398 8.016 49.596-.438 24.782-16.818 45.742-40.757 52.162l-255.8 68.542c-4.843 1.29-9.71 1.92-14.511 1.92-18.917 0-36.667-9.762-46.857-26.711-22.353-37.189-26.34-78.021-30.571-121.24-4.65-47.662-9.47-96.943-40.663-143.07-1.45-2.146-1.779-4.857-.866-7.282.899-2.424 2.918-4.26 5.418-4.928l31.39-8.411c-.748-5.752-1.2-11.442-1.313-17.067-.066-3.671 2.382-6.924 5.936-7.875l20.047-5.37c.061-2.358.16-4.721.329-7.093.245-3.403 2.622-6.279 5.912-7.159l255.8-68.542c2.49-.668 5.159-.089 7.159 1.558 1.991 1.647 3.069 4.161 2.89 6.74-3.281 46.038 15.26 90.518 37.909 135.535 1.191-2.043 2.363-4.076 3.521-6.072 2.118-3.671 4.118-7.145 6.138-10.553 3.172-5.352 8.764-8.538 14.973-8.538h.108c6.251.038 11.852 3.29 14.982 8.708l16.549 28.67c11.151-2.843 23.28 1.902 29.3 12.327 6.02 10.435 4.062 23.318-3.968 31.546zm-243.727-97.494c-5.041 1.351-10.214-1.638-11.565-6.67-1.346-5.036 1.643-10.214 6.674-11.565 5.036-1.346 10.209 1.643 11.555 6.674 1.356 5.038-1.637 10.215-6.664 11.561zm-64.452-22.592c-.08-.301.108-.631.41-.711l112.928-30.265c.052-.01.099-.019.15-.019.099 0 .193.028.292.085.141.085.23.198.268.348l12.469 46.518-20.315-16.022c-1.784-1.393-4.062-1.982-6.284-1.605-2.231.377-4.198 1.676-5.408 3.577l-25.219 39.406-23.379-15.439c-3.493-2.302-8.162-1.53-10.722 1.77l-20.659 26.589zm139.87 65.792c.08.301-.108.631-.409.711l-112.932 30.265c-.151.038-.301.014-.438-.066-.141-.085-.231-.198-.273-.348l-6.091-22.729 23.553-30.312 17.378 11.48-4.571 7.15c-2.377 3.718-1.299 8.665 2.419 11.052 1.341.852 2.833 1.261 4.311 1.261 2.641 0 5.22-1.304 6.74-3.69l33.669-52.599 30.213 23.822zm-121.781 44.767c-3.841-2.217-6.58-5.789-7.729-10.063l-25.822-96.359c-2.358-8.83 2.9-17.938 11.73-20.306l112.932-30.26c4.269-1.144 8.741-.555 12.577 1.662 3.841 2.217 6.58 5.789 7.733 10.063l25.817 96.359c2.363 8.83-2.899 17.938-11.729 20.305l-112.928 30.26c-1.431.381-2.871.57-4.311.57-2.871.001-5.71-.753-8.27-2.231zm183.61 88.142c1.139 4.269-1.388 8.647-5.662 9.8l-147.518 39.519c-.692.188-1.389.278-2.071.278-3.53 0-6.769-2.358-7.719-5.926-1.149-4.274 1.388-8.665 5.653-9.804l147.518-39.529c4.269-1.14 8.646 1.392 9.799 5.662z"/></g></svg>