<svg xmlns="http://www.w3.org/2000/svg" xmlns:xlink="http://www.w3.org/1999/xlink">

<symbol id="bluesky" fill-rule="evenodd" clip-rule="evenodd" stroke-linejoin="round" stroke-miterlimit="1.414" viewBox="0 0 16 16"><path d="m 3.46821,1.9044433 c 1.83436,1.37712 3.80743,4.16936 4.53184,5.66783 0.72446,-1.49836 2.69742,-4.29073 4.53183,-5.66783 C 13.85546,0.91076333 16,0.14191333 16,2.5884433 c 0,0.4886 -0.28014,4.10453 -0.44444,4.69156 -0.57111,2.04092 -2.65223,2.56147 -4.50342,2.24641 3.23584,0.5507297 4.05901,2.3749397 2.28128,4.1991497 -3.37625,3.46453 -4.85266,-0.86927 -5.23114,-1.97974 -0.0693,-0.20358 -0.1018,-0.29881 -0.10228,-0.21783 -4.8e-4,-0.081 -0.0329,0.0143 -0.10228,0.21783 -0.37832,1.11047 -1.85469,5.44438 -5.23114,1.97974 C 0.88882,11.901353 1.71196,10.077033 4.94786,9.5264133 3.09662,9.8414733 1.01547,9.3209233 0.44444,7.2800033 0.28013,6.6929133 0,3.0769933 0,2.5884433 0,0.14191333 2.14459,0.91076333 3.46812,1.9044433 Z"/>
</symbol>
<symbol id="rss" fill-rule="evenodd" clip-rule="evenodd" stroke-linejoin="round" stroke-miterlimit="1.414" viewBox="0 0 16 16"><path d="M12.8 16C12.8 8.978 7.022 3.2 0 3.2V0c8.777 0 16 7.223 16 16h-3.2zM2.194 11.61c1.21 0 2.195.985 2.195 2.196 0 1.21-.99 2.194-2.2 2.194C.98 16 0 15.017 0 13.806c0-1.21.983-2.195 2.194-2.195zM10.606 16h-3.11c0-4.113-3.383-7.497-7.496-7.497v-3.11c5.818 0 10.606 4.79 10.606 10.607z"/>
</symbol>
</svg>
